<svg width="36" height="36" viewBox="0 0 36 36" fill="none" xmlns="http://www.w3.org/2000/svg">
<circle cx="18" cy="18" r="18" fill="#F9F9F9"/>
<path d="M20.5 17.4H15.5C15.09 17.4 14.75 17.06 14.75 16.65C14.75 16.24 15.09 15.9 15.5 15.9H20.5C20.91 15.9 21.25 16.24 21.25 16.65C21.25 17.06 20.91 17.4 20.5 17.4Z" fill="#025358"/>
<path d="M18 19.96C17.59 19.96 17.25 19.62 17.25 19.21V14.21C17.25 13.8 17.59 13.46 18 13.46C18.41 13.46 18.75 13.8 18.75 14.21V19.21C18.75 19.62 18.41 19.96 18 19.96Z" fill="#025358"/>
<path d="M25.07 28.75C24.56 28.75 24 28.6 23.46 28.29L18.58 25.58C18.29 25.42 17.72 25.42 17.43 25.58L12.55 28.29C11.56 28.84 10.55 28.9 9.78001 28.44C9.01001 27.99 8.57001 27.08 8.57001 25.95V11.86C8.57001 9.32 10.64 7.25 13.18 7.25H22.83C25.37 7.25 27.44 9.32 27.44 11.86V25.95C27.44 27.08 27 27.99 26.23 28.44C25.88 28.65 25.48 28.75 25.07 28.75ZM18 23.96C18.47 23.96 18.93 24.06 19.3 24.27L24.18 26.98C24.69 27.27 25.16 27.33 25.46 27.15C25.76 26.97 25.93 26.54 25.93 25.95V11.86C25.93 10.15 24.53 8.75 22.82 8.75H13.18C11.47 8.75 10.07 10.15 10.07 11.86V25.95C10.07 26.54 10.24 26.98 10.54 27.15C10.84 27.32 11.31 27.27 11.82 26.98L16.7 24.27C17.07 24.06 17.53 23.96 18 23.96Z" fill="#025358"/>
</svg>
