<svg xmlns="http://www.w3.org/2000/svg" width="12.245" height="13.051">
    <g data-name="streamline-icon-interface-content-book-2@140x140">
        <path data-name="Path 1424" d="m12.183 10.781-3.342-8.7a.932.932 0 0 0-1.2-.536l-2.61 1a.927.927 0 0 0-.365.25V.932A.932.932 0 0 0 3.729 0h-2.8A.932.932 0 0 0 0 .932v11.187a.932.932 0 0 0 .932.932h2.8a.932.932 0 0 0 .932-.932V4.2l3.17 8.256a.932.932 0 0 0 1.2.537l2.61-1a.932.932 0 0 0 .539-1.212zM2.33 10.72a1.165 1.165 0 1 1 1.166-1.165 1.165 1.165 0 0 1-1.165 1.166zm7.178-.408a1.165 1.165 0 1 1 .669-1.506 1.165 1.165 0 0 1-.669 1.506z"/>
    </g>
</svg>
