<svg xmlns="http://www.w3.org/2000/svg" width="13.181" height="13.049">
    <g data-name="Group 2065">
        <path data-name="Path 3794" d="M12.31 8.657a.872.872 0 0 0-.872.872v.9a.873.873 0 0 1-.872.872H2.615a.873.873 0 0 1-.872-.872v-.9a.872.872 0 0 0-1.743 0v.9a2.618 2.618 0 0 0 2.615 2.615h7.952a2.618 2.618 0 0 0 2.615-2.615v-.9a.872.872 0 0 0-.872-.872z"/>
        <path data-name="Path 3795" d="M6.618 0a.872.872 0 0 0-.872.871l-.028 4.8-.7-.692a.872.872 0 0 0-1.225 1.24l2.212 2.186a.872.872 0 0 0 .613.252h.005a.872.872 0 0 0 .615-.259l2.157-2.183a.872.872 0 1 0-1.24-1.225l-.693.7.023-4.819A.871.871 0 0 0 6.618 0z"/>
    </g>
</svg>
