<svg width="36" height="36" viewBox="0 0 36 36" fill="none" xmlns="http://www.w3.org/2000/svg">
<circle cx="18" cy="18" r="18" fill="#F9F9F9"/>
<path d="M18 28.75C17.22 28.75 16.46 28.35 15.94 27.65L14.93 26.3C14.72 26.02 14.44 25.86 14.14 25.84C13.84 25.83 13.54 25.96 13.3 26.21L12.73 25.7L13.28 26.21C11.84 27.75 10.73 27.63 10.2 27.42C9.66 27.21 8.75 26.52 8.75 24.3V13.04C8.75 8.6 10.03 7.25 14.22 7.25H21.78C25.97 7.25 27.25 8.6 27.25 13.04V24.3C27.25 26.51 26.34 27.2 25.8 27.42C25.27 27.63 24.17 27.75 22.72 26.21C22.48 25.95 22.18 25.81 21.87 25.84C21.57 25.86 21.28 26.02 21.07 26.3L20.06 27.65C19.54 28.35 18.78 28.75 18 28.75ZM14.08 24.33C14.12 24.33 14.17 24.33 14.21 24.33C14.95 24.37 15.65 24.76 16.12 25.39L17.13 26.74C17.62 27.39 18.37 27.39 18.86 26.74L19.87 25.39C20.35 24.76 21.04 24.37 21.79 24.33C22.53 24.29 23.27 24.6 23.81 25.18C24.57 25.99 25.06 26.09 25.24 26.02C25.48 25.92 25.74 25.34 25.74 24.3V13.04C25.74 9.43 25.11 8.75 21.77 8.75H14.22C10.88 8.75 10.25 9.43 10.25 13.04V24.3C10.25 25.35 10.51 25.93 10.75 26.02C10.92 26.09 11.42 25.99 12.18 25.18C12.72 24.63 13.39 24.33 14.08 24.33Z" fill="#025358"/>
<path d="M22.23 17.75H16.73C16.32 17.75 15.98 17.41 15.98 17C15.98 16.59 16.32 16.25 16.73 16.25H22.23C22.64 16.25 22.98 16.59 22.98 17C22.98 17.41 22.64 17.75 22.23 17.75Z" fill="#025358"/>
<path d="M22.23 13.75H16.73C16.32 13.75 15.98 13.41 15.98 13C15.98 12.59 16.32 12.25 16.73 12.25H22.23C22.64 12.25 22.98 12.59 22.98 13C22.98 13.41 22.64 13.75 22.23 13.75Z" fill="#025358"/>
<path d="M13.78 14C13.23 14 12.78 13.55 12.78 13C12.78 12.45 13.23 12 13.78 12C14.33 12 14.78 12.45 14.78 13C14.78 13.55 14.33 14 13.78 14Z" fill="#025358"/>
<path d="M13.78 18C13.23 18 12.78 17.55 12.78 17C12.78 16.45 13.23 16 13.78 16C14.33 16 14.78 16.45 14.78 17C14.78 17.55 14.33 18 13.78 18Z" fill="#025358"/>
</svg>
