<svg width="36" height="36" viewBox="0 0 36 36" fill="none" xmlns="http://www.w3.org/2000/svg">
<circle cx="18" cy="18" r="18" fill="#F9F9F9"/>
<path d="M22 17.25V15C21.9994 14.4034 21.7622 13.8315 21.3403 13.4097C20.9185 12.9878 20.3466 12.7506 19.75 12.75H15.25C14.6534 12.7506 14.0815 12.9878 13.6597 13.4097C13.2378 13.8315 13.0006 14.4034 13 15V17.25H11.5V18.75H23.5V17.25H22ZM14.5 15C14.5 14.8011 14.579 14.6103 14.7197 14.4697C14.8603 14.329 15.0511 14.25 15.25 14.25H19.75C19.9489 14.25 20.1397 14.329 20.2803 14.4697C20.421 14.6103 20.5 14.8011 20.5 15V17.25H14.5V15ZM14.5 9C14.5 8.40666 14.6759 7.82664 15.0056 7.33329C15.3352 6.83994 15.8038 6.45543 16.3519 6.22836C16.9001 6.0013 17.5033 5.94189 18.0853 6.05765C18.6672 6.1734 19.2018 6.45912 19.6213 6.87868C20.0409 7.29824 20.3266 7.83279 20.4424 8.41473C20.5581 8.99667 20.4987 9.59987 20.2716 10.1481C20.0446 10.6962 19.6601 11.1648 19.1667 11.4944C18.6734 11.8241 18.0933 12 17.5 12C16.7046 11.9992 15.942 11.6829 15.3796 11.1204C14.8171 10.558 14.5008 9.79541 14.5 9ZM16 9C16 9.29667 16.088 9.58668 16.2528 9.83336C16.4176 10.08 16.6519 10.2723 16.926 10.3858C17.2001 10.4994 17.5017 10.5291 17.7926 10.4712C18.0836 10.4133 18.3509 10.2704 18.5607 10.0607C18.7704 9.85088 18.9133 9.58361 18.9712 9.29264C19.0291 9.00167 18.9994 8.70007 18.8858 8.42598C18.7723 8.15189 18.58 7.91762 18.3334 7.7528C18.0867 7.58797 17.7967 7.5 17.5 7.5C17.1023 7.5004 16.721 7.65856 16.4398 7.93978C16.1586 8.221 16.0004 8.6023 16 9Z" fill="#025358"/>
<path d="M24.65 17.9L24.65 17.25L23.35 17.25L23.35 17.9L24.65 17.9ZM23.35 22.9C23.35 23.259 23.641 23.55 24 23.55C24.359 23.55 24.65 23.259 24.65 22.9L23.35 22.9ZM23.35 17.9L23.35 22.9L24.65 22.9L24.65 17.9L23.35 17.9Z" fill="#025358"/>
<path d="M11.65 17.9L11.65 17.25L10.35 17.25L10.35 17.9L11.65 17.9ZM10.35 22.9C10.35 23.259 10.641 23.55 11 23.55C11.359 23.55 11.65 23.259 11.65 22.9L10.35 22.9ZM10.35 17.9L10.35 22.9L11.65 22.9L11.65 17.9L10.35 17.9Z" fill="#025358"/>
<path d="M17.9514 25.998H17.0432C17.0464 25.6855 17.0741 25.43 17.1262 25.2314C17.1815 25.0296 17.271 24.8457 17.3947 24.6797C17.5184 24.5137 17.6828 24.3249 17.8879 24.1133C18.0376 23.9603 18.1744 23.8171 18.298 23.6836C18.425 23.5469 18.5275 23.4004 18.6057 23.2441C18.6838 23.0846 18.7229 22.8942 18.7229 22.6729C18.7229 22.4482 18.6822 22.2546 18.6008 22.0918C18.5227 21.929 18.4055 21.8037 18.2492 21.7158C18.0962 21.6279 17.9058 21.584 17.6779 21.584C17.4891 21.584 17.3101 21.6182 17.1408 21.6865C16.9716 21.7549 16.8348 21.8607 16.7307 22.0039C16.6265 22.1439 16.5728 22.3278 16.5695 22.5557H15.6662C15.6727 22.1878 15.7639 21.8721 15.9397 21.6084C16.1187 21.3447 16.3596 21.1429 16.6623 21.0029C16.965 20.863 17.3036 20.793 17.6779 20.793C18.0913 20.793 18.4429 20.8678 18.7326 21.0176C19.0256 21.1673 19.2486 21.3822 19.4016 21.6621C19.5546 21.9388 19.6311 22.2676 19.6311 22.6484C19.6311 22.9414 19.5708 23.2116 19.4504 23.459C19.3332 23.7031 19.1818 23.9326 18.9963 24.1475C18.8107 24.3623 18.6138 24.5674 18.4055 24.7627C18.2264 24.9287 18.106 25.1159 18.0441 25.3242C17.9823 25.5326 17.9514 25.7572 17.9514 25.998ZM17.0041 27.5459C17.0041 27.3994 17.0497 27.2757 17.1408 27.1748C17.232 27.0739 17.3638 27.0234 17.5363 27.0234C17.7121 27.0234 17.8456 27.0739 17.9367 27.1748C18.0279 27.2757 18.0734 27.3994 18.0734 27.5459C18.0734 27.6859 18.0279 27.8063 17.9367 27.9072C17.8456 28.0081 17.7121 28.0586 17.5363 28.0586C17.3638 28.0586 17.232 28.0081 17.1408 27.9072C17.0497 27.8063 17.0041 27.6859 17.0041 27.5459Z" fill="#025358"/>
</svg>
