<svg width="106" height="106" viewBox="0 0 106 106" fill="none" xmlns="http://www.w3.org/2000/svg">
<path d="M82.8125 33.7875V14.0781C82.8112 12.9803 82.3746 11.9279 81.5983 11.1517C80.8221 10.3754 79.7697 9.93876 78.6719 9.9375H27.3281C26.2304 9.93876 25.1779 10.3754 24.4017 11.1517C23.6254 11.9279 23.1888 12.9803 23.1875 14.0781V33.7875L3.3125 47.9828V102.688H102.688V47.9828L82.8125 33.7875ZM93.9257 49.867L82.8125 57.1323V41.928L93.9257 49.867ZM29.8125 16.5625H76.1875V61.4641L64.3524 69.2025L54.7093 64.2023L44.1995 69.276L29.8125 60.5411V16.5625ZM54.6032 71.61L96.0625 93.1075V96.0625H9.9375V93.173L54.6032 71.61ZM9.9375 56.2245L37.0884 72.7094L9.9375 85.8163V56.2245ZM71.1041 72.7042L96.0625 56.3843V85.6449L71.1041 72.7042ZM23.1875 41.928V56.5195L12.1457 49.8148L23.1875 41.928Z" fill="#08A76C"/>
</svg>
