<svg width="106" height="106" viewBox="0 0 106 106" fill="none" xmlns="http://www.w3.org/2000/svg">
<path d="M53.4999 9.36537C54.3542 9.47532 55.1537 9.86485 55.7694 10.4805C56.5039 11.215 56.9166 12.2112 56.9166 13.25V18.4617V18.8152L57.2499 18.9331C59.73 19.8099 61.8782 21.4324 63.3999 23.5781C64.9214 25.7234 65.7422 28.2867 65.7499 30.9167C65.7499 34.2982 64.4066 37.5412 62.0155 39.9323C59.6244 42.3234 56.3814 43.6667 52.9999 43.6667H52.9831L52.9663 43.6678C52.3416 43.7099 51.7149 43.7099 51.0902 43.6678L50.7672 43.646L50.6151 43.9319L25.2358 91.6504L18.1666 96.2453V87.9281L43.6805 39.9849L43.8444 39.6768L43.6117 39.4167C41.977 37.5892 40.9039 35.3291 40.521 32.9072C40.1381 30.4853 40.4617 28.0044 41.4529 25.7617C42.4442 23.5191 44.0611 21.6098 46.1099 20.2627C48.1586 18.9156 50.5524 18.1879 53.0042 18.1667L53.4999 18.1624V17.6667V9.36537ZM52.6452 78.7924L52.9987 79.1483L53.3535 78.7936L59.6328 72.5143L65.6349 83.8245L52.9999 96.4596L40.368 83.8277L46.4928 72.5989L52.6452 78.7924ZM66.9397 48.6168L87.8332 87.928V96.2453L80.764 91.6503L59.948 52.5388C62.4962 51.6642 64.865 50.3354 66.9397 48.6168ZM57.9166 30.9167C57.9166 29.9443 57.6282 28.9937 57.088 28.1851C56.5477 27.3766 55.7798 26.7464 54.8814 26.3743C53.983 26.0021 52.9944 25.9048 52.0407 26.0945C51.087 26.2842 50.2109 26.7525 49.5233 27.4401C48.8357 28.1277 48.3674 29.0037 48.1777 29.9575C47.988 30.9112 48.0854 31.8998 48.4575 32.7982C48.8296 33.6966 49.4598 34.4645 50.2683 35.0047C51.0769 35.545 52.0275 35.8333 52.9999 35.8333C54.3039 35.8333 55.5545 35.3153 56.4765 34.3933C57.3986 33.4712 57.9166 32.2207 57.9166 30.9167ZM25.8879 52.2088L20.0117 63.4714L9.98369 53.4434L18.6346 44.8741L25.8879 52.2088ZM86.2405 63.4722L80.1165 52.2042L87.3652 44.8741L96.0205 53.4477L86.2405 63.4722Z" fill="#08A76C" stroke="white"/>
</svg>
