<svg width="97" height="93" viewBox="0 0 97 93" fill="none" xmlns="http://www.w3.org/2000/svg">
<path d="M41.5418 19.875L26.2831 30.5561C22.0059 33.5502 19.4585 38.4428 19.4585 43.6638V88.3333" stroke="#08A76C" stroke-width="8" stroke-linecap="round" stroke-linejoin="round"/>
<path d="M41.5415 21.2073C41.5415 12.2743 51.597 7.03884 58.9152 12.1616V12.1616C61.8669 14.2278 63.6248 17.6042 63.6248 21.2072V35.9328C63.6248 41.1 66.1203 45.9491 70.325 48.9525L72.383 50.4225C76.5877 53.4259 79.0832 58.275 79.0832 63.4422V72.3333C79.0832 81.1699 71.9197 88.3333 63.0832 88.3333H57.5415C48.7049 88.3333 41.5415 81.1699 41.5415 72.3333V21.2073Z" stroke="#08A76C" stroke-width="8" stroke-linecap="round" stroke-linejoin="round"/>
<path d="M4 88.3333H92.3333" stroke="#08A76C" stroke-width="8" stroke-linecap="round" stroke-linejoin="round"/>
</svg>
