<svg width="106" height="106" viewBox="0 0 106 106" fill="none" xmlns="http://www.w3.org/2000/svg">
<path d="M30.6406 26.5C30.1852 26.5 29.8125 26.8727 29.8125 27.3281V32.2969C29.8125 32.7523 30.1852 33.125 30.6406 33.125H70.3906C70.8461 33.125 71.2188 32.7523 71.2188 32.2969V27.3281C71.2188 26.8727 70.8461 26.5 70.3906 26.5H30.6406ZM50.5156 47.2031V42.2344C50.5156 41.7789 50.143 41.4062 49.6875 41.4062H30.6406C30.1852 41.4062 29.8125 41.7789 29.8125 42.2344V47.2031C29.8125 47.6586 30.1852 48.0312 30.6406 48.0312H49.6875C50.143 48.0312 50.5156 47.6586 50.5156 47.2031ZM45.5469 88.1953H21.5312V15.3203H79.5V50.9297C79.5 51.3852 79.8727 51.7578 80.3281 51.7578H86.125C86.5805 51.7578 86.9531 51.3852 86.9531 50.9297V11.1797C86.9531 9.34746 85.4729 7.86719 83.6406 7.86719H17.3906C15.5584 7.86719 14.0781 9.34746 14.0781 11.1797V92.3359C14.0781 94.1682 15.5584 95.6484 17.3906 95.6484H45.5469C46.0023 95.6484 46.375 95.2758 46.375 94.8203V89.0234C46.375 88.568 46.0023 88.1953 45.5469 88.1953ZM56.3228 76.2289C56.5092 72.6576 57.9998 69.3141 60.5463 66.7676C63.2584 64.0555 66.9643 62.5234 70.8047 62.5234C74.6762 62.5234 78.3199 64.0348 81.0631 66.7676C81.3943 67.0988 81.7152 67.4508 82.0154 67.8131L79.6242 69.666C79.5009 69.7614 79.4071 69.8896 79.3534 70.036C79.2997 70.1824 79.2885 70.3409 79.3209 70.4934C79.3534 70.6458 79.4282 70.7861 79.5368 70.8979C79.6454 71.0097 79.7833 71.0887 79.9348 71.1256L89.5928 73.4547C90.1104 73.5789 90.6072 73.1855 90.6176 72.6576L90.6797 62.7822C90.6812 62.6267 90.6388 62.4738 90.5574 62.3412C90.4761 62.2086 90.359 62.1016 90.2197 62.0325C90.0803 61.9633 89.9243 61.9348 89.7694 61.9503C89.6146 61.9657 89.4673 62.0244 89.3443 62.1197L87.243 63.7553C83.3715 58.9625 77.44 55.8984 70.8047 55.8984C59.4283 55.8984 50.143 64.8939 49.6875 76.1564C49.6668 76.6223 50.0498 77.0156 50.5156 77.0156H55.4947C55.9398 77.0156 56.3021 76.674 56.3228 76.2289ZM91.0938 77.0156H86.1147C85.6695 77.0156 85.3072 77.3572 85.2865 77.8023C85.1002 81.3736 83.6096 84.7172 81.0631 87.2637C78.351 89.9758 74.6451 91.5078 70.8047 91.5078C66.9332 91.5078 63.2895 89.9965 60.5463 87.2637C60.215 86.9324 59.8941 86.5805 59.5939 86.2182L61.9852 84.3652C62.1085 84.2699 62.2023 84.1416 62.256 83.9952C62.3096 83.8489 62.3209 83.6904 62.2884 83.5379C62.256 83.3854 62.1812 83.2452 62.0726 83.1334C61.964 83.0215 61.8261 82.9426 61.6746 82.9057L52.0166 80.5766C51.499 80.4523 51.0021 80.8457 50.9918 81.3736L50.9297 91.249C50.9282 91.4046 50.9706 91.5574 51.0519 91.69C51.1333 91.8226 51.2504 91.9296 51.3897 91.9988C51.5291 92.0679 51.6851 92.0964 51.8399 92.081C51.9947 92.0656 52.1421 92.0068 52.265 91.9115L54.3664 90.276C58.2379 95.0687 64.1693 98.1328 70.8047 98.1328C82.1811 98.1328 91.4664 89.1373 91.9219 77.8748C91.9426 77.409 91.5596 77.0156 91.0938 77.0156Z" fill="#08A76C"/>
</svg>
