<svg width="106" height="106" viewBox="0 0 106 106" fill="none" xmlns="http://www.w3.org/2000/svg">
<path d="M36.9809 69.019L36.9808 69.019L45.8141 77.8523C45.8141 77.8523 45.8141 77.8524 45.8141 77.8524C46.5486 78.5866 47.5446 78.9991 48.5832 78.9991C49.6217 78.9991 50.6177 78.5866 51.3522 77.8524L51.3523 77.8523M36.9809 69.019L51.7058 78.2059L51.3523 77.8523M36.9809 69.019L36.9746 69.013C36.6005 68.6516 36.3021 68.2195 36.0969 67.7416C35.8916 67.2638 35.7836 66.7498 35.779 66.2298C35.7745 65.7097 35.8736 65.194 36.0706 64.7126C36.2675 64.2313 36.5583 63.794 36.9261 63.4262C37.2938 63.0585 37.7311 62.7677 38.2125 62.5707C38.6938 62.3738 39.2095 62.2747 39.7296 62.2792C40.2496 62.2837 40.7636 62.3918 41.2414 62.5971C41.7193 62.8023 42.1515 63.1007 42.5128 63.4748L42.5127 63.4748L42.5189 63.481L48.2296 69.1917L48.5832 69.5453L48.9367 69.1917L63.4808 54.6477L36.9809 69.019ZM51.3523 77.8523L69.0188 60.1858L51.3523 77.8523ZM69.0189 54.6477C69.7531 55.3822 70.1656 56.3782 70.1656 57.4167C70.1656 58.4552 69.7531 59.4512 69.0189 60.1857L69.0189 54.6477ZM69.0189 54.6477C69.0189 54.6477 69.0188 54.6476 69.0188 54.6476L69.0189 54.6477ZM64.6021 10.4809L64.6022 10.481L86.6855 32.5643L86.6856 32.5644C87.4202 33.2987 87.8329 34.2948 87.8332 35.3335V88.3334C87.8332 90.5435 86.9552 92.6631 85.3924 94.2259C83.8296 95.7887 81.71 96.6667 79.4998 96.6667H26.4998C24.2897 96.6667 22.1701 95.7887 20.6073 94.2259C19.0445 92.6631 18.1665 90.5435 18.1665 88.3334V17.6667C18.1665 15.4565 19.0445 13.3369 20.6073 11.7741C22.1701 10.2113 24.2897 9.33334 26.4998 9.33334H61.8331C61.8331 9.33334 61.8331 9.33334 61.8332 9.33334C62.8718 9.33359 63.8678 9.74638 64.6021 10.4809ZM77.6713 35.8333H78.8784L78.0249 34.9798L62.1867 19.1416L61.3332 18.2881V19.4952V35.3333V35.8333H61.8332H77.6713ZM53.4998 17.6667V17.1667H52.9998H26.4998H25.9998V17.6667V88.3334V88.8334H26.4998H79.4998H79.9998V88.3334V44.1667V43.6667H79.4998H57.4165C56.3777 43.6667 55.3815 43.254 54.647 42.5195C53.9125 41.785 53.4998 40.7888 53.4998 39.75V17.6667Z" fill="#08A76C" stroke="white"/>
</svg>
