<svg width="106" height="106" viewBox="0 0 106 106" fill="none" xmlns="http://www.w3.org/2000/svg">
<path fill-rule="evenodd" clip-rule="evenodd" d="M71.9075 40.7172C72.216 41.025 72.4608 41.3905 72.6278 41.7929C72.7948 42.1954 72.8807 42.6268 72.8807 43.0625C72.8807 43.4982 72.7948 43.9296 72.6278 44.3321C72.4608 44.7345 72.216 45.1 71.9075 45.4078L52.0325 65.2828C51.7248 65.5912 51.3593 65.836 50.9569 66.003C50.5544 66.17 50.123 66.2559 49.6873 66.2559C49.2516 66.2559 48.8202 66.17 48.4177 66.003C48.0153 65.836 47.6497 65.5912 47.342 65.2828L37.4045 55.3453C37.0966 55.0373 36.8523 54.6716 36.6856 54.2692C36.5189 53.8668 36.4331 53.4356 36.4331 53C36.4331 52.5644 36.5189 52.1332 36.6856 51.7308C36.8523 51.3284 37.0966 50.9627 37.4045 50.6547C37.7125 50.3468 38.0782 50.1025 38.4805 49.9358C38.8829 49.7691 39.3142 49.6833 39.7498 49.6833C40.1853 49.6833 40.6166 49.7691 41.019 49.9358C41.4214 50.1025 41.7871 50.3468 42.095 50.6547L49.6873 58.2536L67.217 40.7172C67.5247 40.4088 67.8903 40.164 68.2927 39.997C68.6952 39.83 69.1266 39.7441 69.5623 39.7441C69.998 39.7441 70.4294 39.83 70.8319 39.997C71.2343 40.164 71.5998 40.4088 71.9075 40.7172Z" fill="#08A76C"/>
<path d="M19.875 0H86.125C89.6391 0 93.0093 1.39598 95.4942 3.88084C97.979 6.36569 99.375 9.73588 99.375 13.25V92.75C99.375 96.2641 97.979 99.6343 95.4942 102.119C93.0093 104.604 89.6391 106 86.125 106H19.875C16.3609 106 12.9907 104.604 10.5058 102.119C8.02098 99.6343 6.625 96.2641 6.625 92.75V86.125H13.25V92.75C13.25 94.5071 13.948 96.1922 15.1904 97.4346C16.4328 98.677 18.1179 99.375 19.875 99.375H86.125C87.8821 99.375 89.5672 98.677 90.8096 97.4346C92.052 96.1922 92.75 94.5071 92.75 92.75V13.25C92.75 11.4929 92.052 9.80785 90.8096 8.56542C89.5672 7.32299 87.8821 6.625 86.125 6.625H19.875C18.1179 6.625 16.4328 7.32299 15.1904 8.56542C13.948 9.80785 13.25 11.4929 13.25 13.25V19.875H6.625V13.25C6.625 9.73588 8.02098 6.36569 10.5058 3.88084C12.9907 1.39598 16.3609 0 19.875 0V0Z" fill="#08A76C"/>
<path d="M6.625 33.125V29.8125C6.625 28.934 6.97399 28.0914 7.59521 27.4702C8.21642 26.849 9.05897 26.5 9.9375 26.5C10.816 26.5 11.6586 26.849 12.2798 27.4702C12.901 28.0914 13.25 28.934 13.25 29.8125V33.125H16.5625C17.441 33.125 18.2836 33.474 18.9048 34.0952C19.526 34.7164 19.875 35.559 19.875 36.4375C19.875 37.316 19.526 38.1586 18.9048 38.7798C18.2836 39.401 17.441 39.75 16.5625 39.75H3.3125C2.43397 39.75 1.59142 39.401 0.970209 38.7798C0.348995 38.1586 0 37.316 0 36.4375C0 35.559 0.348995 34.7164 0.970209 34.0952C1.59142 33.474 2.43397 33.125 3.3125 33.125H6.625ZM6.625 53V49.6875C6.625 48.809 6.97399 47.9664 7.59521 47.3452C8.21642 46.724 9.05897 46.375 9.9375 46.375C10.816 46.375 11.6586 46.724 12.2798 47.3452C12.901 47.9664 13.25 48.809 13.25 49.6875V53H16.5625C17.441 53 18.2836 53.349 18.9048 53.9702C19.526 54.5914 19.875 55.434 19.875 56.3125C19.875 57.191 19.526 58.0336 18.9048 58.6548C18.2836 59.276 17.441 59.625 16.5625 59.625H3.3125C2.43397 59.625 1.59142 59.276 0.970209 58.6548C0.348995 58.0336 0 57.191 0 56.3125C0 55.434 0.348995 54.5914 0.970209 53.9702C1.59142 53.349 2.43397 53 3.3125 53H6.625ZM6.625 72.875V69.5625C6.625 68.684 6.97399 67.8414 7.59521 67.2202C8.21642 66.599 9.05897 66.25 9.9375 66.25C10.816 66.25 11.6586 66.599 12.2798 67.2202C12.901 67.8414 13.25 68.684 13.25 69.5625V72.875H16.5625C17.441 72.875 18.2836 73.224 18.9048 73.8452C19.526 74.4664 19.875 75.309 19.875 76.1875C19.875 77.066 19.526 77.9086 18.9048 78.5298C18.2836 79.151 17.441 79.5 16.5625 79.5H3.3125C2.43397 79.5 1.59142 79.151 0.970209 78.5298C0.348995 77.9086 0 77.066 0 76.1875C0 75.309 0.348995 74.4664 0.970209 73.8452C1.59142 73.224 2.43397 72.875 3.3125 72.875H6.625Z" fill="#08A76C"/>
</svg>
