<svg width="106" height="112" viewBox="0 0 106 112" fill="none" xmlns="http://www.w3.org/2000/svg">
<g filter="url(#filter0_d_103_1274)">
<path d="M84.8627 83.2089L84.6511 83.5454L84.9313 83.8274L98.1834 97.1655L92.7473 102.602L79.3208 89.3903L79.04 89.114L78.7057 89.3223C75.7351 91.1736 72.2046 92.25 68.4585 92.25C57.693 92.25 49.0835 83.6405 49.0835 72.875C49.0835 62.1095 57.693 53.5 68.4585 53.5C79.224 53.5 87.8335 62.1095 87.8335 72.875C87.8335 76.6651 86.7572 80.1949 84.8627 83.2089ZM65.7502 25.8817V43.7173C63.0276 44.0276 60.3773 44.6757 57.9168 45.6336V25.9258V25.5711L57.582 25.4539L39.9153 19.2706L39.2502 19.0378V19.7425V72.875C39.2502 75.4108 39.5648 77.8782 40.1642 80.2156L35.4983 78.5863L35.3245 78.5256L35.1528 78.5921L11.6109 87.7179L10.9983 87.8328C10.561 87.8216 10.144 87.6431 9.83385 87.333C9.51348 87.0126 9.3335 86.5781 9.3335 86.125V19.345C9.3335 18.5712 9.83167 17.9493 10.5816 17.6993L10.5831 17.6988L35.3304 9.36198L61.6683 18.5803L61.8423 18.6412L62.0142 18.5745L85.5561 9.44874L86.1687 9.33388C86.606 9.34501 87.023 9.52359 87.3331 9.83369C87.6535 10.1541 87.8335 10.5886 87.8335 11.0417V51.026C85.5131 48.9797 82.8925 47.2794 80.0002 46.0428V20.7583V20.0289L79.3198 20.292L66.0698 25.4153L65.7502 25.5389V25.8817ZM17.5073 23.6411L17.1668 23.7558V24.115V76.4525V77.1819L17.8472 76.9188L31.0972 71.7955L31.4168 71.6719V71.3292V19.6542V18.9583L30.7573 19.1803L17.5073 23.6411ZM68.4585 61.3333C65.3975 61.3333 62.4618 62.5493 60.2973 64.7138C58.1328 66.8783 56.9168 69.814 56.9168 72.875C56.9168 75.936 58.1328 78.8717 60.2973 81.0362C62.4618 83.2007 65.3975 84.4167 68.4585 84.4167C71.5195 84.4167 74.4552 83.2007 76.6197 81.0362C78.7842 78.8717 80.0002 75.936 80.0002 72.875C80.0002 69.814 78.7842 66.8783 76.6197 64.7138C74.4552 62.5493 71.5195 61.3333 68.4585 61.3333Z" fill="#08A76C" stroke="white"/>
</g>
<defs>
<filter id="filter0_d_103_1274" x="-4" y="0" width="114" height="114" filterUnits="userSpaceOnUse" color-interpolation-filters="sRGB">
<feFlood flood-opacity="0" result="BackgroundImageFix"/>
<feColorMatrix in="SourceAlpha" type="matrix" values="0 0 0 0 0 0 0 0 0 0 0 0 0 0 0 0 0 0 127 0" result="hardAlpha"/>
<feOffset dy="4"/>
<feGaussianBlur stdDeviation="2"/>
<feComposite in2="hardAlpha" operator="out"/>
<feColorMatrix type="matrix" values="0 0 0 0 0 0 0 0 0 0 0 0 0 0 0 0 0 0 0.25 0"/>
<feBlend mode="normal" in2="BackgroundImageFix" result="effect1_dropShadow_103_1274"/>
<feBlend mode="normal" in="SourceGraphic" in2="effect1_dropShadow_103_1274" result="shape"/>
</filter>
</defs>
</svg>
