<svg width="106" height="106" viewBox="0 0 106 106" fill="none" xmlns="http://www.w3.org/2000/svg">
<path d="M91.9219 81.9844H20.7031V17.3906C20.7031 16.9352 20.3305 16.5625 19.875 16.5625H14.0781C13.6227 16.5625 13.25 16.9352 13.25 17.3906V88.6094C13.25 89.0648 13.6227 89.4375 14.0781 89.4375H91.9219C92.3773 89.4375 92.75 89.0648 92.75 88.6094V82.8125C92.75 82.357 92.3773 81.9844 91.9219 81.9844ZM31.6551 66.0119C31.976 66.3328 32.4936 66.3328 32.8248 66.0119L47.141 51.7682L60.3496 65.0596C60.6705 65.3805 61.1984 65.3805 61.5193 65.0596L90.0275 36.5617C90.3484 36.2408 90.3484 35.7129 90.0275 35.392L85.9283 31.2928C85.7727 31.1387 85.5625 31.0522 85.3435 31.0522C85.1244 31.0522 84.9142 31.1387 84.7586 31.2928L60.95 55.091L47.7621 41.8203C47.6065 41.6662 47.3963 41.5797 47.1772 41.5797C46.9582 41.5797 46.748 41.6662 46.5924 41.8203L27.5662 60.7326C27.4121 60.8883 27.3256 61.0984 27.3256 61.3175C27.3256 61.5365 27.4121 61.7467 27.5662 61.9023L31.6551 66.0119Z" fill="#08A76C"/>
</svg>
