<svg width="106" height="106" viewBox="0 0 106 106" fill="none" xmlns="http://www.w3.org/2000/svg">
<path d="M86.125 59.625H66.25V49.3496C66.3418 44.8237 67.6694 40.4091 70.0892 36.5833C72.5232 32.4947 73.4028 27.6661 72.567 22.9819C71.7311 18.2977 69.2357 14.0714 65.5378 11.077C62.8683 8.90081 59.6789 7.45603 56.2826 6.88445C52.8862 6.31288 49.3996 6.63414 46.1649 7.81672C42.9302 8.9993 40.0585 11.0026 37.8317 13.6299C35.6048 16.2573 34.0993 19.4185 33.4629 22.8033C32.55 27.5599 33.4328 32.486 35.9406 36.6296C38.3184 40.3287 39.636 44.6092 39.75 49.0051V59.625H19.875C18.1185 59.6268 16.4344 60.3253 15.1924 61.5674C13.9503 62.8094 13.2518 64.4935 13.25 66.25V79.5C13.2518 81.2565 13.9503 82.9406 15.1924 84.1827C16.4344 85.4247 18.1185 86.1233 19.875 86.125V92.75C19.8768 94.5065 20.5753 96.1906 21.8174 97.4327C23.0594 98.6747 24.7435 99.3733 26.5 99.375H79.5C81.2565 99.3733 82.9406 98.6747 84.1826 97.4327C85.4247 96.1906 86.1232 94.5065 86.125 92.75V86.125C87.8815 86.1233 89.5656 85.4247 90.8076 84.1827C92.0497 82.9406 92.7482 81.2565 92.75 79.5V66.25C92.7482 64.4935 92.0497 62.8094 90.8076 61.5674C89.5656 60.3253 87.8815 59.6268 86.125 59.625ZM39.9819 23.9958C40.3367 22.0927 41.1041 20.2906 42.2303 18.716C43.3564 17.1415 44.8139 15.8329 46.5001 14.8821C48.1864 13.9314 50.0605 13.3618 51.9906 13.2132C53.9207 13.0646 55.8599 13.3408 57.6718 14.0223C59.4837 14.7037 61.1243 15.7739 62.4781 17.1576C63.8319 18.5412 64.8662 20.2047 65.508 22.031C66.1498 23.8573 66.3837 25.8021 66.1931 27.7285C66.0025 29.6549 65.3922 31.5162 64.4049 33.1813C61.9418 37.1946 60.3851 41.6974 59.8436 46.375H46.1763C45.6547 41.7027 44.0976 37.2056 41.6182 33.2111C39.9513 30.4476 39.3683 27.1642 39.9819 23.9958ZM59.625 53V59.625H46.375V53H59.625ZM79.5 92.75H26.5V86.125H79.5V92.75ZM19.875 79.5V66.25H86.125V79.5H19.875Z" fill="#08A76C"/>
</svg>
