<svg width="106" height="106" viewBox="0 0 106 106" fill="none" xmlns="http://www.w3.org/2000/svg">
<path d="M99.375 66.25C99.3817 62.933 98.5581 59.6671 96.9793 56.75C95.4006 53.8328 93.1168 51.3572 90.3362 49.5487C87.5556 47.7402 84.3666 46.6565 81.0598 46.3961C77.7531 46.1358 74.4338 46.7072 71.4044 48.0583C68.3751 49.4094 65.7321 51.4972 63.7163 54.1314C61.7005 56.7655 60.376 59.8623 59.8636 63.1395C59.3512 66.4166 59.6671 69.7699 60.7826 72.8937C61.8981 76.0175 63.7776 78.8124 66.25 81.0237V106L79.5 99.7261L92.75 106V81.0237C94.8325 79.1667 96.4992 76.8906 97.6408 74.3447C98.7825 71.7987 99.3735 69.0402 99.375 66.25ZM86.125 95.5325L79.5 92.3956L72.875 95.5325V84.9656C77.1563 86.5118 81.8436 86.5118 86.125 84.9656V95.5325ZM79.5 79.5C76.8794 79.5 74.3176 78.7229 72.1387 77.267C69.9597 75.811 68.2614 73.7417 67.2586 71.3206C66.2557 68.8994 65.9933 66.2353 66.5046 63.6651C67.0158 61.0948 68.2778 58.7339 70.1308 56.8808C71.9838 55.0278 74.3448 53.7658 76.915 53.2546C79.4853 52.7433 82.1494 53.0057 84.5705 54.0086C86.9916 55.0115 89.061 56.7097 90.5169 58.8887C91.9729 61.0676 92.75 63.6294 92.75 66.25C92.7456 69.7628 91.3482 73.1304 88.8643 75.6143C86.3804 78.0982 83.0127 79.4956 79.5 79.5Z" fill="#08A76C"/>
<path d="M82.8125 16.5625H72.875V13.25C72.8698 11.4946 72.1701 9.8125 70.9288 8.57121C69.6875 7.32992 68.0054 6.63024 66.25 6.625H39.75C37.9946 6.63024 36.3125 7.32992 35.0712 8.57121C33.8299 9.8125 33.1302 11.4946 33.125 13.25V16.5625H23.1875C21.4321 16.5677 19.75 17.2674 18.5087 18.5087C17.2674 19.75 16.5677 21.4321 16.5625 23.1875V92.75C16.5677 94.5054 17.2674 96.1875 18.5087 97.4288C19.75 98.6701 21.4321 99.3698 23.1875 99.375H53V92.75H23.1875V23.1875H33.125V33.125H72.875V23.1875H82.8125V39.75H89.4375V23.1875C89.4323 21.4321 88.7326 19.75 87.4913 18.5087C86.25 17.2674 84.5679 16.5677 82.8125 16.5625ZM66.25 26.5H39.75V13.25H66.25V26.5Z" fill="#08A76C"/>
</svg>
