<svg width="106" height="106" viewBox="0 0 106 106" fill="none" xmlns="http://www.w3.org/2000/svg">
<path d="M49.6875 66.25H56.3125V79.5H49.6875V66.25ZM66.25 59.625H72.875V79.5H66.25V59.625ZM33.125 46.375H39.75V79.5H33.125V46.375Z" fill="#08A76C"/>
<path d="M82.8125 16.5625H72.875V13.25C72.875 11.4929 72.177 9.80785 70.9346 8.56542C69.6922 7.32299 68.0071 6.625 66.25 6.625H39.75C37.9929 6.625 36.3078 7.32299 35.0654 8.56542C33.823 9.80785 33.125 11.4929 33.125 13.25V16.5625H23.1875C21.4304 16.5625 19.7453 17.2605 18.5029 18.5029C17.2605 19.7453 16.5625 21.4304 16.5625 23.1875V92.75C16.5625 94.5071 17.2605 96.1922 18.5029 97.4346C19.7453 98.677 21.4304 99.375 23.1875 99.375H82.8125C84.5696 99.375 86.2547 98.677 87.4971 97.4346C88.7395 96.1922 89.4375 94.5071 89.4375 92.75V23.1875C89.4375 21.4304 88.7395 19.7453 87.4971 18.5029C86.2547 17.2605 84.5696 16.5625 82.8125 16.5625ZM39.75 13.25H66.25V26.5H39.75V13.25ZM82.8125 92.75H23.1875V23.1875H33.125V33.125H72.875V23.1875H82.8125V92.75Z" fill="#08A76C"/>
</svg>
