<svg width="136" height="132" viewBox="0 0 136 132" fill="none" xmlns="http://www.w3.org/2000/svg">
<path d="M58.4 28.8L33.2246 46.4228C28.9474 49.4168 26.4 54.3095 26.4 59.5305V128" stroke="white" stroke-width="8" stroke-linecap="round" stroke-linejoin="round"/>
<path d="M58.4 30.7305C58.4 17.7861 72.971 10.1997 83.5754 17.6228V17.6228C87.8526 20.6168 90.4 25.5095 90.4 30.7305V55.7661C90.4 60.9333 92.8955 65.7825 97.1002 68.7859L106.1 75.2142C110.305 78.2175 112.8 83.0667 112.8 88.2339V112C112.8 120.837 105.637 128 96.8 128H74.4C65.5634 128 58.4 120.837 58.4 112V30.7305Z" stroke="white" stroke-width="8" stroke-linecap="round" stroke-linejoin="round"/>
<path d="M4 128H132" stroke="white" stroke-width="8" stroke-linecap="round" stroke-linejoin="round"/>
</svg>
