<svg width="128" height="128" viewBox="0 0 128 128" fill="none" xmlns="http://www.w3.org/2000/svg">
<g clip-path="url(#clip0_346_1480)">
<path d="M120 80C120.008 75.9946 119.014 72.0509 117.107 68.5283C115.201 65.0057 112.443 62.0162 109.085 59.8324C105.728 57.6486 101.877 56.3399 97.8836 56.0255C93.8905 55.7112 89.8823 56.4012 86.2242 58.0327C82.5662 59.6642 79.3746 62.1853 76.9404 65.3662C74.5063 68.547 72.9069 72.2866 72.2881 76.2439C71.6694 80.2012 72.0509 84.2505 73.3979 88.0226C74.7449 91.7947 77.0145 95.1697 80 97.84V128L96 120.424L112 128V97.84C114.515 95.5975 116.527 92.8491 117.906 89.7747C119.285 86.7003 119.998 83.3693 120 80ZM104 115.36L96 111.572L88 115.36V102.6C93.1699 104.467 98.8301 104.467 104 102.6V115.36ZM96 96C92.8355 96 89.7421 95.0616 87.1109 93.3035C84.4797 91.5454 82.4289 89.0465 81.2179 86.1229C80.0069 83.1993 79.6901 79.9822 80.3074 76.8785C80.9248 73.7748 82.4486 70.9239 84.6863 68.6863C86.9239 66.4486 89.7748 64.9248 92.8785 64.3074C95.9822 63.6901 99.1993 64.0069 102.123 65.2179C105.047 66.4289 107.545 68.4797 109.304 71.1109C111.062 73.742 112 76.8355 112 80C111.995 84.2418 110.307 88.3084 107.308 91.3078C104.308 94.3073 100.242 95.9947 96 96Z" fill="white"/>
<path d="M100 20H88V16C87.9937 13.8802 87.1488 11.8491 85.6499 10.3501C84.1509 8.85122 82.1198 8.00633 80 8H48C45.8802 8.00633 43.8491 8.85122 42.3501 10.3501C40.8512 11.8491 40.0063 13.8802 40 16V20H28C25.8802 20.0063 23.8491 20.8512 22.3501 22.3501C20.8512 23.8491 20.0063 25.8802 20 28V112C20.0063 114.12 20.8512 116.151 22.3501 117.65C23.8491 119.149 25.8802 119.994 28 120H64V112H28V28H40V40H88V28H100V48H108V28C107.994 25.8802 107.149 23.8491 105.65 22.3501C104.151 20.8512 102.12 20.0063 100 20ZM80 32H48V16H80V32Z" fill="white"/>
</g>
<defs>
<clipPath id="clip0_346_1480">
<rect width="128" height="128" rx="16" fill="white"/>
</clipPath>
</defs>
</svg>
