<svg width="128" height="128" viewBox="0 0 128 128" fill="none" xmlns="http://www.w3.org/2000/svg">
<path d="M104 72H80V59.592C80.1108 54.1268 81.714 48.7959 84.636 44.176C87.5752 39.2389 88.6374 33.4082 87.6281 27.7517C86.6187 22.0953 83.6054 16.9918 79.14 13.376C75.9165 10.7481 72.0651 9.00351 67.9639 8.3133C63.8626 7.6231 59.6524 8.01104 55.7463 9.43906C51.8402 10.8671 48.3725 13.2861 45.6835 16.4588C42.9945 19.6314 41.1765 23.4487 40.408 27.536C39.3057 33.2798 40.3717 39.2284 43.4 44.232C46.2713 48.6988 47.8624 53.8677 48 59.176V72H24C21.8789 72.0021 19.8453 72.8457 18.3455 74.3455C16.8457 75.8453 16.0021 77.8789 16 80V96C16.0021 98.1211 16.8457 100.155 18.3455 101.655C19.8453 103.154 21.8789 103.998 24 104V112C24.0021 114.121 24.8457 116.155 26.3455 117.655C27.8453 119.154 29.8789 119.998 32 120H96C98.1211 119.998 100.155 119.154 101.655 117.655C103.154 116.155 103.998 114.121 104 112V104C106.121 103.998 108.155 103.154 109.655 101.655C111.154 100.155 111.998 98.1211 112 96V80C111.998 77.8789 111.154 75.8453 109.655 74.3455C108.155 72.8457 106.121 72.0021 104 72ZM48.28 28.976C48.7084 26.678 49.6352 24.5018 50.995 22.6005C52.3549 20.6992 54.1149 19.1189 56.1511 17.9709C58.1874 16.8229 60.4504 16.135 62.7811 15.9556C65.1118 15.7762 67.4535 16.1097 69.6414 16.9325C71.8294 17.7554 73.8105 19.0478 75.4453 20.7186C77.0801 22.3894 78.3289 24.3981 79.104 26.6035C79.879 28.8089 80.1614 31.1573 79.9313 33.4835C79.7012 35.8097 78.9641 38.0573 77.772 40.068C74.7977 44.9142 72.9179 50.3516 72.264 56H55.76C55.1302 50.358 53.2499 44.9275 50.256 40.104C48.2431 36.767 47.5391 32.8021 48.28 28.976ZM72 64V72H56V64H72ZM96 112H32V104H96V112ZM24 96V80H104V96H24Z" fill="white"/>
</svg>
