<svg width="128" height="128" viewBox="0 0 128 128" fill="none" xmlns="http://www.w3.org/2000/svg">
<path d="M37 32C36.45 32 36 32.45 36 33V39C36 39.55 36.45 40 37 40H85C85.55 40 86 39.55 86 39V33C86 32.45 85.55 32 85 32H37ZM61 57V51C61 50.45 60.55 50 60 50H37C36.45 50 36 50.45 36 51V57C36 57.55 36.45 58 37 58H60C60.55 58 61 57.55 61 57ZM55 106.5H26V18.5H96V61.5C96 62.05 96.45 62.5 97 62.5H104C104.55 62.5 105 62.05 105 61.5V13.5C105 11.2875 103.213 9.5 101 9.5H21C18.7875 9.5 17 11.2875 17 13.5V111.5C17 113.713 18.7875 115.5 21 115.5H55C55.55 115.5 56 115.05 56 114.5V107.5C56 106.95 55.55 106.5 55 106.5ZM68.0125 92.05C68.2375 87.7375 70.0375 83.7 73.1125 80.625C76.3875 77.35 80.8625 75.5 85.5 75.5C90.175 75.5 94.575 77.325 97.8875 80.625C98.2875 81.025 98.675 81.45 99.0375 81.8875L96.15 84.125C96.0011 84.2402 95.8878 84.395 95.823 84.5718C95.7582 84.7485 95.7446 84.94 95.7838 85.1241C95.8229 85.3082 95.9133 85.4775 96.0444 85.6126C96.1755 85.7476 96.3421 85.8429 96.525 85.8875L108.188 88.7C108.812 88.85 109.413 88.375 109.425 87.7375L109.5 75.8125C109.502 75.6246 109.451 75.4401 109.352 75.28C109.254 75.1198 109.113 74.9906 108.944 74.9071C108.776 74.8236 108.588 74.7892 108.401 74.8079C108.214 74.8265 108.036 74.8974 107.887 75.0125L105.35 76.9875C100.675 71.2 93.5125 67.5 85.5 67.5C71.7625 67.5 60.55 78.3625 60 91.9625C59.975 92.525 60.4375 93 61 93H67.0125C67.55 93 67.9875 92.5875 68.0125 92.05ZM110 93H103.988C103.45 93 103.013 93.4125 102.988 93.95C102.763 98.2625 100.962 102.3 97.8875 105.375C94.6125 108.65 90.1375 110.5 85.5 110.5C80.825 110.5 76.425 108.675 73.1125 105.375C72.7125 104.975 72.325 104.55 71.9625 104.113L74.85 101.875C74.9989 101.76 75.1122 101.605 75.177 101.428C75.2418 101.251 75.2554 101.06 75.2162 100.876C75.1771 100.692 75.0867 100.522 74.9556 100.387C74.8245 100.252 74.6579 100.157 74.475 100.113L62.8125 97.3C62.1875 97.15 61.5875 97.625 61.575 98.2625L61.5 110.188C61.4982 110.375 61.5494 110.56 61.6476 110.72C61.7459 110.88 61.8872 111.009 62.0555 111.093C62.2238 111.176 62.4122 111.211 62.5992 111.192C62.7861 111.173 62.964 111.103 63.1125 110.988L65.65 109.012C70.325 114.8 77.4875 118.5 85.5 118.5C99.2375 118.5 110.45 107.637 111 94.0375C111.025 93.475 110.562 93 110 93Z" fill="white"/>
</svg>
