<svg width="16" height="16" viewBox="0 0 16 16" fill="none" xmlns="http://www.w3.org/2000/svg">
<g clip-path="url(#clip0_858_3439)">
<path d="M4.66667 5.33334H11.3333C11.5267 5.33334 11.7133 5.37334 11.8933 5.42001C11.9533 5.20001 12 4.97334 12 4.72667C12 3.85334 11.5667 3.04001 10.84 2.56001L8 0.666672L5.16 2.56001C4.43333 3.04001 4 3.85334 4 4.72667C4 4.97334 4.04667 5.20001 4.10667 5.42001C4.28667 5.37334 4.47333 5.33334 4.66667 5.33334Z" fill="white"/>
<path d="M16 4.66667C16 3.93334 14.6667 2.66667 14.6667 2.66667C14.6667 2.66667 13.3333 3.93334 13.3333 4.66667C13.3333 5.16 13.6 5.58667 14 5.81334V8.66667H12.6667V7.33334C12.6667 6.6 12.0667 6 11.3333 6H4.66667C3.93333 6 3.33333 6.6 3.33333 7.33334V8.66667H2V5.81334C2.4 5.58667 2.66667 5.16 2.66667 4.66667C2.66667 3.93334 1.33333 2.66667 1.33333 2.66667C1.33333 2.66667 0 3.93334 0 4.66667C0 5.16 0.266667 5.58667 0.666667 5.81334V14H6.66667V11.3333C6.66667 10.6 7.26667 10 8 10C8.73333 10 9.33333 10.6 9.33333 11.3333V14H15.3333V5.81334C15.7333 5.58667 16 5.16 16 4.66667Z" fill="white"/>
</g>
<defs>
<clipPath id="clip0_858_3439">
<rect width="16" height="16" fill="white"/>
</clipPath>
</defs>
</svg>
