<svg width="32" height="32" viewBox="0 0 32 32" fill="none" xmlns="http://www.w3.org/2000/svg">
<path d="M16.4998 3.33335C16.5312 3.35687 16.561 3.38272 16.5891 3.41076C16.7453 3.56704 16.8331 3.77901 16.8331 4.00002V5.57335V5.92691L17.1665 6.04476C17.8473 6.28546 18.437 6.73084 18.8547 7.31985C19.2723 7.90867 19.4976 8.61222 19.4998 9.33408C19.4996 10.2621 19.1309 11.152 18.4747 11.8082C17.8183 12.4646 16.9281 12.8334 15.9998 12.8334H15.983L15.9662 12.8345C15.7932 12.8461 15.6197 12.8461 15.4468 12.8345L15.1237 12.8127L14.9717 13.0986L7.35234 27.4245L5.83314 28.412V26.6314L13.4945 12.2349L13.6585 11.9268L13.4258 11.6667C12.9771 11.165 12.6825 10.5446 12.5774 9.87975C12.4723 9.21492 12.5611 8.53389 12.8332 7.91826C13.1053 7.30263 13.5492 6.77851 14.1116 6.40873C14.674 6.03894 15.3311 5.83916 16.0041 5.83333L16.4998 5.82904V5.33335V3.33335ZM15.6451 24.0324L15.9986 24.3883L16.3534 24.0336L17.9152 22.4718L19.3849 25.2412L15.9998 28.6262L12.6179 25.2443L14.1177 22.4948L15.6451 24.0324ZM20.0947 15.2073L26.1665 26.6313V28.412L24.6472 27.4245L18.5922 16.0476C19.1253 15.8296 19.6299 15.5474 20.0947 15.2073ZM17.8331 9.33335C17.8331 8.97076 17.7256 8.6163 17.5242 8.31481C17.3227 8.01332 17.0364 7.77834 16.7014 7.63957C16.3664 7.50081 15.9978 7.46451 15.6421 7.53525C15.2865 7.60599 14.9598 7.7806 14.7034 8.03699C14.447 8.29339 14.2724 8.62005 14.2017 8.97569C14.131 9.33132 14.1673 9.69994 14.306 10.0349C14.4448 10.3699 14.6798 10.6563 14.9813 10.8577C15.2827 11.0592 15.6372 11.1667 15.9998 11.1667C16.486 11.1667 16.9524 10.9735 17.2962 10.6297C17.64 10.2859 17.8331 9.81958 17.8331 9.33335ZM7.38776 15.8255L5.95164 18.5781L3.50859 16.135L5.62282 14.0408L7.38776 15.8255ZM26.1154 18.5789L24.6164 15.8209L26.3768 14.0408L28.4954 16.1394L26.1154 18.5789Z" fill="#2B3E4B" stroke="#2B3E4B"/>
</svg>
