<svg width="33" height="33" viewBox="0 0 33 33" fill="none" xmlns="http://www.w3.org/2000/svg">
<path d="M27.4727 4.79492C27.1849 4.60263 26.8466 4.5 26.5005 4.49999L27.4727 4.79492ZM27.4727 4.79492C27.7605 4.98721 27.9848 5.26053 28.1173 5.5803M27.4727 4.79492L28.1173 5.5803M28.1173 5.5803C28.2497 5.90007 28.2844 6.25193 28.2168 6.5914M28.1173 5.5803L28.2168 6.5914M28.2168 6.5914C28.1493 6.93087 27.9826 7.24269 27.7379 7.48743M28.2168 6.5914L27.7379 7.48743M27.7379 7.48743C27.4932 7.73217 27.1813 7.89884 26.8419 7.96637M27.7379 7.48743L26.8419 7.96637M26.8419 7.96637C26.5024 8.03389 26.1505 7.99924 25.8308 7.86678M26.8419 7.96637L25.8308 7.86678M25.8308 7.86678C25.511 7.73433 25.2377 7.51003 25.0454 7.22224M25.8308 7.86678L25.0454 7.22224M25.0454 7.22224C24.8531 6.93452 24.7505 6.59627 24.7505 6.25024L25.0454 7.22224ZM5.04539 9.27774C4.85311 9.56552 4.75047 9.90386 4.75047 10.25L5.04539 9.27774ZM5.04539 9.27774C5.23769 8.98996 5.511 8.76566 5.83077 8.6332M5.04539 9.27774L5.83077 8.6332M5.83077 8.6332C6.15054 8.50075 6.50241 8.46609 6.84187 8.53362M5.83077 8.6332L6.84187 8.53362M6.84187 8.53362C7.18134 8.60114 7.49316 8.76781 7.7379 9.01256M6.84187 8.53362L7.7379 9.01256M7.7379 9.01256C7.98265 9.2573 8.14932 9.56912 8.21684 9.90858M7.7379 9.01256L8.21684 9.90858M8.21684 9.90858C8.28436 10.2481 8.24971 10.5999 8.11726 10.9197M8.21684 9.90858L8.11726 10.9197M8.11726 10.9197C7.9848 11.2395 7.7605 11.5128 7.47271 11.7051M8.11726 10.9197L7.47271 11.7051M7.47271 11.7051C7.185 11.8973 6.84675 11.9999 6.50072 12L7.47271 11.7051ZM5.52822 27.7051C5.81594 27.8973 6.15418 27.9999 6.50022 28C6.96427 27.9995 7.40918 27.815 7.73732 27.4868C8.06545 27.1587 8.25 26.7138 8.25047 26.2498L5.52822 27.7051ZM5.52822 27.7051C5.24043 27.5128 5.01613 27.2395 4.88368 26.9197M5.52822 27.7051L4.88368 26.9197M4.88368 26.9197C4.75122 26.5999 4.71657 26.2481 4.78409 25.9086M4.88368 26.9197L4.78409 25.9086M4.78409 25.9086C4.85162 25.5691 5.01829 25.2573 5.26303 25.0126M4.78409 25.9086L5.26303 25.0126M5.26303 25.0126C5.50777 24.7678 5.81959 24.6011 6.15906 24.5336M5.26303 25.0126L6.15906 24.5336M6.15906 24.5336C6.49852 24.4661 6.85039 24.5007 7.17016 24.6332M6.15906 24.5336L7.17016 24.6332M7.17016 24.6332C7.48993 24.7657 7.76325 24.99 7.95554 25.2777M7.17016 24.6332L7.95554 25.2777M7.95554 25.2777C8.14778 25.5655 8.25042 25.9037 8.25047 26.2497L7.95554 25.2777ZM21.5282 27.7051C21.8159 27.8973 22.1542 27.9999 22.5002 28C22.9643 27.9995 23.4092 27.815 23.7373 27.4868C24.0654 27.1587 24.25 26.7138 24.2505 26.2498L21.5282 27.7051ZM21.5282 27.7051C21.2404 27.5128 21.0161 27.2395 20.8837 26.9197M21.5282 27.7051L20.8837 26.9197M20.8837 26.9197C20.7512 26.5999 20.7166 26.2481 20.7841 25.9086M20.8837 26.9197L20.7841 25.9086M20.7841 25.9086C20.8516 25.5691 21.0183 25.2573 21.263 25.0126M20.7841 25.9086L21.263 25.0126M21.263 25.0126C21.5078 24.7678 21.8196 24.6011 22.1591 24.5336M21.263 25.0126L22.1591 24.5336M22.1591 24.5336C22.4985 24.4661 22.8504 24.5007 23.1702 24.6332M22.1591 24.5336L23.1702 24.6332M23.1702 24.6332C23.4899 24.7657 23.7632 24.99 23.9555 25.2777M23.1702 24.6332L23.9555 25.2777M23.9555 25.2777C24.1478 25.5655 24.2504 25.9037 24.2505 26.2497L23.9555 25.2777ZM30.7505 6.25068L30.7505 6.24924C30.7472 5.14702 30.315 4.08937 29.5454 3.30027C28.7758 2.51118 27.7293 2.0526 26.6276 2.02166C25.5258 1.99072 24.4552 2.38985 23.6426 3.13452C22.8777 3.83538 22.3979 4.79051 22.2898 5.81777L10.2231 8.23072C9.91661 7.66223 9.48383 7.17047 8.95706 6.79383C8.37729 6.3793 7.70239 6.1176 6.99472 6.03292C6.28705 5.94825 5.56945 6.04333 4.90825 6.30937C4.24705 6.57542 3.66358 7.00385 3.21178 7.55506C2.75997 8.10628 2.4544 8.76249 2.32331 9.46305C2.19222 10.1636 2.23985 10.8859 2.46178 11.5632C2.68371 12.2405 3.07279 12.8509 3.59306 13.338C4.06576 13.7806 4.63289 14.1084 5.25047 14.2974V22.2027C4.59917 22.4022 4.00453 22.7561 3.51772 23.2352C2.98448 23.7601 2.5996 24.4168 2.40214 25.1385C2.20469 25.8602 2.20168 26.6213 2.39344 27.3445C2.5852 28.0678 2.96488 28.7274 3.49396 29.2565C4.02304 29.7856 4.68268 30.1653 5.40593 30.357C6.12917 30.5488 6.89028 30.5458 7.61199 30.3483C8.3337 30.1509 8.99032 29.766 9.51521 29.2327C9.9944 28.7459 10.3482 28.1513 10.5478 27.5H18.453C18.6417 28.118 18.9694 28.6855 19.4121 29.1587C19.8992 29.6794 20.5098 30.0689 21.1874 30.2911C21.8649 30.5133 22.5876 30.5611 23.2885 30.4301C23.9895 30.299 24.646 29.9933 25.1975 29.5413C25.749 29.0893 26.1776 28.5055 26.4437 27.8439C26.7098 27.1823 26.8048 26.4643 26.7199 25.7563C26.635 25.0483 26.3729 24.3732 25.9579 23.7933C25.5809 23.2664 25.0887 22.8336 24.5198 22.5273L26.9325 10.4615C27.9414 10.3598 28.8831 9.8996 29.5842 9.16112C30.3302 8.37541 30.7475 7.33413 30.7505 6.25068ZM24.7505 6.25022C24.7509 5.78617 24.9355 5.34127 25.2636 5.01314C25.5917 4.68506 26.0365 4.50052 26.5005 4.49999L24.7505 6.25022ZM6.50069 12C6.03665 11.9995 5.59175 11.815 5.26361 11.4868C4.93554 11.1588 4.751 10.714 4.75047 10.25L6.50069 12ZM19.816 22.9761C19.1722 23.5034 18.6992 24.2078 18.4538 25H10.5471C10.3433 24.3428 9.98239 23.7439 9.49445 23.256C9.00652 22.7681 8.40769 22.4072 7.75047 22.2034V14.2967C8.5427 14.0513 9.24702 13.5782 9.77441 12.9344C10.3018 12.2907 10.627 11.5071 10.7116 10.6821L22.7786 8.26912C23.1702 8.98912 23.7616 9.5808 24.4814 9.97278L22.0683 22.0388C21.2434 22.1235 20.4598 22.4487 19.816 22.9761Z" fill="#2B3E4B" stroke="#2B3E4B" stroke-width="0.5"/>
</svg>
