<svg width="34" height="34" viewBox="0 0 34 34" fill="none" xmlns="http://www.w3.org/2000/svg">
<path d="M20.3292 28.7229V28.723L20.3283 31.5202C22.9063 30.9285 25.2259 29.6609 27.1054 27.9192C26.8055 26.6744 25.8267 25.6747 24.5662 25.376L24.5652 25.3758C24.2629 25.3032 24.0422 25.0472 24.0121 24.7394C24.0121 24.7393 24.0121 24.7392 24.0121 24.7391L24.3604 24.7052C24.3448 24.5458 24.4333 24.3937 24.5812 24.3281L20.3292 28.7229ZM20.3292 28.7229C20.3292 27.1192 21.4149 25.7448 22.9733 25.376L22.9744 25.3758C23.2743 25.3038 23.4982 25.0496 23.5275 24.7394L20.3292 28.7229ZM31.9917 10.465L31.8546 10.137L31.5288 10.2792L30.8413 10.5792L30.5202 10.7193L30.6606 11.0402C31.3865 12.7002 31.7837 14.4588 31.8687 16.275H15.1208V15.1812C15.1208 13.3727 14.1445 11.7648 12.6308 10.9169C13.0732 10.3745 13.3292 9.68686 13.3292 8.95833C13.3292 7.24837 11.9391 5.85833 10.2292 5.85833C8.5192 5.85833 7.12917 7.24837 7.12917 8.95833C7.12917 9.68638 7.38533 10.374 7.82792 10.9168C6.31486 11.7646 5.3375 13.3726 5.3375 15.1812V16.275H2.13171C2.50122 8.63776 8.63776 2.50122 16.275 2.13171V13.875V14.225H16.625H17.375H17.725V13.875V2.13456C21.661 2.32128 25.2723 4.02077 27.9234 6.90104H25.3333H24.9833V7.25104V8.00104V8.35104H25.3333H29.875H30.225V8.00104V3.45833V3.10833H29.875H29.125H28.775V3.45833V5.69018C25.7065 2.47698 21.5214 0.65 17 0.65C7.98378 0.65 0.65 7.98378 0.65 17C0.65 19.2728 1.10772 21.4737 2.0105 23.5411L2.1507 23.8622L2.47164 23.7217L3.15914 23.4206L3.47968 23.2803L3.33939 22.9597C2.61343 21.3008 2.21623 19.5421 2.13133 17.725H31.8673C31.7009 21.1686 30.3614 24.3044 28.2378 26.7491C27.8119 25.7879 27.086 24.9817 26.1694 24.4625C26.6144 23.9191 26.8719 23.23 26.8719 22.501C26.8719 20.7911 25.4808 19.4 23.7708 19.4C22.0609 19.4 20.6698 20.7911 20.6698 22.501C20.6698 23.2291 20.9259 23.9167 21.3691 24.4596C19.8562 25.3067 18.8792 26.9146 18.8792 28.724V31.7637C18.4978 31.8127 18.1135 31.8482 17.725 31.8678V20.125V19.775H17.375H16.625H16.275V20.125V31.8654C12.339 31.6788 8.72768 29.9801 6.07665 27.1H8.66667H9.01667V26.75V26V25.65H8.66667H4.125H3.775V26V30.5417V30.8917H4.125H4.875H5.225V30.5417V28.3083C8.2928 31.5231 12.4787 33.35 17 33.35C26.0162 33.35 33.35 26.0152 33.35 17C33.35 14.7218 32.7866 12.3666 31.9917 10.465ZM22.8927 25.0354C23.049 24.9979 23.1646 24.8656 23.1792 24.7052L22.8927 25.0354ZM9.43188 11.8332L9.43272 11.833C9.73334 11.7609 9.95765 11.5057 9.98604 11.1944C10.0142 10.8863 9.84334 10.5927 9.55945 10.4659L9.55881 10.4656C8.96343 10.201 8.57917 9.60866 8.57917 8.95833C8.57917 8.04851 9.31934 7.30833 10.2292 7.30833C11.139 7.30833 11.8792 8.04851 11.8792 8.95833C11.8792 9.60805 11.4944 10.1996 10.8976 10.4645L10.8968 10.4648C10.6133 10.5915 10.4421 10.8837 10.4702 11.1931C10.4985 11.5045 10.7228 11.7598 11.0235 11.832L11.0244 11.8322C12.5822 12.202 13.6698 13.5777 13.6698 15.1802V16.274H6.7875V15.1812C6.7875 13.5786 7.87422 12.203 9.43188 11.8332Z" fill="#2B3E4B" stroke="#2B3E4B" stroke-width="0.7"/>
</svg>
